<mxfile host="app.diagrams.net" modified="2023-06-12T01:44:47.913Z" agent="Mozilla/5.0 (Windows NT 10.0; Win64; x64) AppleWebKit/537.36 (KHTML, like Gecko) Chrome/114.0.0.0 Safari/537.36" etag="Tsd1H-2n5R8bEtRWm0kP" version="21.3.8" type="google">
  <diagram name="Página-1" id="wglQQDajy7mPOBz9t8HD">
    <mxGraphModel dx="-919" dy="821" grid="1" gridSize="10" guides="1" tooltips="1" connect="1" arrows="1" fold="1" page="1" pageScale="1" pageWidth="827" pageHeight="1169" math="0" shadow="0">
      <root>
        <mxCell id="0" />
        <mxCell id="1" parent="0" />
        <mxCell id="pxfhAP28jo3gnTTbYpIA-1" style="edgeStyle=orthogonalEdgeStyle;rounded=0;orthogonalLoop=1;jettySize=auto;html=1;entryX=0;entryY=0.5;entryDx=0;entryDy=0;endArrow=open;endFill=0;startSize=11;endSize=21;" edge="1" parent="1" source="pxfhAP28jo3gnTTbYpIA-2" target="pxfhAP28jo3gnTTbYpIA-7">
          <mxGeometry relative="1" as="geometry">
            <mxPoint x="2840" y="362" as="targetPoint" />
          </mxGeometry>
        </mxCell>
        <mxCell id="pxfhAP28jo3gnTTbYpIA-2" value="Sem alocação de empregados" style="html=1;align=center;verticalAlign=top;rounded=1;absoluteArcSize=1;arcSize=10;dashed=0;whiteSpace=wrap;" vertex="1" parent="1">
          <mxGeometry x="2530" y="342" width="140" height="40" as="geometry" />
        </mxCell>
        <mxCell id="pxfhAP28jo3gnTTbYpIA-3" value="ETAPA 4" style="text;html=1;strokeColor=none;fillColor=none;align=center;verticalAlign=middle;whiteSpace=wrap;rounded=0;fontSize=30;labelBackgroundColor=none;" vertex="1" parent="1">
          <mxGeometry x="2810" y="120" width="60" height="30" as="geometry" />
        </mxCell>
        <mxCell id="pxfhAP28jo3gnTTbYpIA-4" value="ESTADOS SERVIÇO" style="text;html=1;strokeColor=none;fillColor=none;align=center;verticalAlign=middle;whiteSpace=wrap;rounded=0;fontSize=30;labelBackgroundColor=none;" vertex="1" parent="1">
          <mxGeometry x="2590" y="222" width="140" height="30" as="geometry" />
        </mxCell>
        <mxCell id="pxfhAP28jo3gnTTbYpIA-5" style="edgeStyle=orthogonalEdgeStyle;rounded=0;orthogonalLoop=1;jettySize=auto;html=1;endArrow=open;endFill=0;startSize=11;endSize=21;entryX=1;entryY=0.5;entryDx=0;entryDy=0;" edge="1" parent="1" source="pxfhAP28jo3gnTTbYpIA-7" target="pxfhAP28jo3gnTTbYpIA-11">
          <mxGeometry relative="1" as="geometry">
            <mxPoint x="2860" y="489.9999999999999" as="targetPoint" />
            <Array as="points">
              <mxPoint x="2960" y="490" />
              <mxPoint x="2830" y="490" />
            </Array>
          </mxGeometry>
        </mxCell>
        <mxCell id="pxfhAP28jo3gnTTbYpIA-6" style="edgeStyle=orthogonalEdgeStyle;rounded=0;orthogonalLoop=1;jettySize=auto;html=1;entryX=0;entryY=0.5;entryDx=0;entryDy=0;endArrow=open;endFill=0;startSize=11;endSize=21;" edge="1" parent="1" source="pxfhAP28jo3gnTTbYpIA-7" target="pxfhAP28jo3gnTTbYpIA-12">
          <mxGeometry relative="1" as="geometry" />
        </mxCell>
        <mxCell id="pxfhAP28jo3gnTTbYpIA-7" value="Não disponível" style="html=1;align=center;verticalAlign=top;rounded=1;absoluteArcSize=1;arcSize=10;dashed=0;whiteSpace=wrap;" vertex="1" parent="1">
          <mxGeometry x="2890" y="342" width="140" height="40" as="geometry" />
        </mxCell>
        <mxCell id="pxfhAP28jo3gnTTbYpIA-8" value="verificaFuncionarios()" style="text;html=1;strokeColor=none;fillColor=none;align=center;verticalAlign=middle;whiteSpace=wrap;rounded=0;labelBackgroundColor=none;" vertex="1" parent="1">
          <mxGeometry x="2700" y="339" width="130" height="21" as="geometry" />
        </mxCell>
        <mxCell id="pxfhAP28jo3gnTTbYpIA-9" style="edgeStyle=orthogonalEdgeStyle;rounded=0;orthogonalLoop=1;jettySize=auto;html=1;endArrow=open;endFill=0;startSize=11;endSize=21;entryX=0.5;entryY=0;entryDx=0;entryDy=0;" edge="1" parent="1" source="pxfhAP28jo3gnTTbYpIA-11" target="pxfhAP28jo3gnTTbYpIA-16">
          <mxGeometry relative="1" as="geometry">
            <mxPoint x="2740" y="630" as="targetPoint" />
          </mxGeometry>
        </mxCell>
        <mxCell id="pxfhAP28jo3gnTTbYpIA-10" style="edgeStyle=orthogonalEdgeStyle;rounded=0;orthogonalLoop=1;jettySize=auto;html=1;entryX=0.75;entryY=0;entryDx=0;entryDy=0;endArrow=open;endFill=0;startSize=11;endSize=21;" edge="1" parent="1" source="pxfhAP28jo3gnTTbYpIA-11" target="pxfhAP28jo3gnTTbYpIA-18">
          <mxGeometry relative="1" as="geometry">
            <Array as="points">
              <mxPoint x="2780" y="645" />
              <mxPoint x="2775" y="645" />
            </Array>
          </mxGeometry>
        </mxCell>
        <mxCell id="pxfhAP28jo3gnTTbYpIA-11" value="Disponível" style="html=1;align=center;verticalAlign=top;rounded=1;absoluteArcSize=1;arcSize=10;dashed=0;whiteSpace=wrap;" vertex="1" parent="1">
          <mxGeometry x="2670" y="470" width="140" height="40" as="geometry" />
        </mxCell>
        <mxCell id="pxfhAP28jo3gnTTbYpIA-12" value="" style="ellipse;html=1;shape=endState;fillColor=#000000;strokeColor=#000000;" vertex="1" parent="1">
          <mxGeometry x="3190" y="382" width="30" height="30" as="geometry" />
        </mxCell>
        <mxCell id="pxfhAP28jo3gnTTbYpIA-13" value="verificaHabilitação()" style="text;html=1;strokeColor=none;fillColor=none;align=center;verticalAlign=middle;whiteSpace=wrap;rounded=0;labelBackgroundColor=none;" vertex="1" parent="1">
          <mxGeometry x="2610" y="540" width="130" height="21" as="geometry" />
        </mxCell>
        <mxCell id="pxfhAP28jo3gnTTbYpIA-14" style="edgeStyle=orthogonalEdgeStyle;rounded=0;orthogonalLoop=1;jettySize=auto;html=1;entryX=0.5;entryY=1;entryDx=0;entryDy=0;endArrow=open;endFill=0;startSize=11;endSize=21;" edge="1" parent="1" source="pxfhAP28jo3gnTTbYpIA-16" target="pxfhAP28jo3gnTTbYpIA-12">
          <mxGeometry relative="1" as="geometry" />
        </mxCell>
        <mxCell id="pxfhAP28jo3gnTTbYpIA-15" style="edgeStyle=orthogonalEdgeStyle;rounded=0;orthogonalLoop=1;jettySize=auto;html=1;endArrow=open;endFill=0;startSize=11;endSize=21;entryX=0.5;entryY=0;entryDx=0;entryDy=0;" edge="1" parent="1" source="pxfhAP28jo3gnTTbYpIA-16" target="pxfhAP28jo3gnTTbYpIA-18">
          <mxGeometry relative="1" as="geometry">
            <mxPoint x="2740" y="770" as="targetPoint" />
          </mxGeometry>
        </mxCell>
        <mxCell id="pxfhAP28jo3gnTTbYpIA-16" value="Não Habilitado" style="html=1;align=center;verticalAlign=top;rounded=1;absoluteArcSize=1;arcSize=10;dashed=0;whiteSpace=wrap;" vertex="1" parent="1">
          <mxGeometry x="2530" y="584" width="140" height="40" as="geometry" />
        </mxCell>
        <mxCell id="pxfhAP28jo3gnTTbYpIA-17" style="edgeStyle=orthogonalEdgeStyle;rounded=0;orthogonalLoop=1;jettySize=auto;html=1;entryX=0;entryY=0.5;entryDx=0;entryDy=0;endArrow=open;endFill=0;startSize=11;endSize=21;" edge="1" parent="1" source="pxfhAP28jo3gnTTbYpIA-18" target="pxfhAP28jo3gnTTbYpIA-21">
          <mxGeometry relative="1" as="geometry" />
        </mxCell>
        <mxCell id="pxfhAP28jo3gnTTbYpIA-18" value="Habilitado" style="html=1;align=center;verticalAlign=top;rounded=1;absoluteArcSize=1;arcSize=10;dashed=0;whiteSpace=wrap;" vertex="1" parent="1">
          <mxGeometry x="2670" y="780" width="140" height="40" as="geometry" />
        </mxCell>
        <mxCell id="pxfhAP28jo3gnTTbYpIA-19" value="realizarTreinamento()" style="text;html=1;strokeColor=none;fillColor=none;align=center;verticalAlign=middle;whiteSpace=wrap;rounded=0;labelBackgroundColor=none;" vertex="1" parent="1">
          <mxGeometry x="2590" y="690" width="130" height="21" as="geometry" />
        </mxCell>
        <mxCell id="pxfhAP28jo3gnTTbYpIA-20" style="edgeStyle=orthogonalEdgeStyle;rounded=0;orthogonalLoop=1;jettySize=auto;html=1;entryX=1;entryY=0.5;entryDx=0;entryDy=0;endArrow=open;endFill=0;startSize=11;endSize=21;" edge="1" parent="1" source="pxfhAP28jo3gnTTbYpIA-21" target="pxfhAP28jo3gnTTbYpIA-12">
          <mxGeometry relative="1" as="geometry">
            <Array as="points">
              <mxPoint x="3280" y="800" />
              <mxPoint x="3280" y="397" />
            </Array>
          </mxGeometry>
        </mxCell>
        <mxCell id="pxfhAP28jo3gnTTbYpIA-21" value="Realizando servi;o" style="html=1;align=center;verticalAlign=top;rounded=1;absoluteArcSize=1;arcSize=10;dashed=0;whiteSpace=wrap;" vertex="1" parent="1">
          <mxGeometry x="3000" y="780" width="140" height="40" as="geometry" />
        </mxCell>
        <mxCell id="pxfhAP28jo3gnTTbYpIA-22" value="realizarServiço()" style="text;html=1;strokeColor=none;fillColor=none;align=center;verticalAlign=middle;whiteSpace=wrap;rounded=0;labelBackgroundColor=none;" vertex="1" parent="1">
          <mxGeometry x="2830" y="809.5" width="130" height="21" as="geometry" />
        </mxCell>
      </root>
    </mxGraphModel>
  </diagram>
</mxfile>
